<svg width="38" height="22" viewBox="0 0 38 22" fill="none" xmlns="http://www.w3.org/2000/svg">
<path d="M14.3258 0H18.1144V17.1976H14.3258V0ZM19.9221 0H23.7107V17.1976H19.9221V0ZM24.7429 4.71451H28.8751L31.3715 12.3104L33.8678 4.71451H38L31.5433 22H27.4111L29.386 17.1113L24.7429 4.71451ZM12.6672 11.0478C12.6672 10.149 12.5136 9.30259 12.205 8.50862C11.8964 7.71465 11.4677 7.02705 10.9158 6.44583C10.3639 5.86307 9.70562 5.40056 8.93939 5.05676C8.17315 4.71296 7.33091 4.54029 6.41264 4.54029C2.42184 4.54029 0 7.40631 0 11.0478C0 14.6122 2.75935 17.3996 5.71482 17.4736L8.985 13.8043L8.93179 13.7134V17.2161H12.6672V11.0478ZM8.91962 13.7257L6.34575 13.7319C4.5822 13.7319 2.63165 11.1588 4.6202 9.14226C6.38528 7.35389 9.02757 8.82004 9.02757 11.3099L8.91962 13.7257Z" fill="#FFF7F0"/>
</svg>
