<svg width="133" height="89" viewBox="0 0 133 89" fill="none" xmlns="http://www.w3.org/2000/svg">
<path d="M130.166 63.302L117.802 2.04004L2.48482 25.3149L14.8496 86.5769L130.166 63.302Z" fill="#CB3974" stroke="#371447" stroke-width="3" stroke-miterlimit="10" stroke-linecap="round" stroke-linejoin="round"/>
<path d="M99.5549 5.8626C101.614 16.0634 111.544 22.6533 121.753 20.5929L118.027 2.13428L99.5549 5.8626Z" fill="#8A3575" stroke="#371447" stroke-width="3" stroke-miterlimit="10" stroke-linecap="round" stroke-linejoin="round"/>
<path d="M20.9835 21.7214C23.0424 31.9222 16.4452 41.848 6.23689 43.9084L2.51131 25.4497L20.9835 21.7214Z" fill="#8A3575" stroke="#371447" stroke-width="3" stroke-miterlimit="10" stroke-linecap="round" stroke-linejoin="round"/>
<path d="M111.953 67.2924C109.895 57.0916 116.492 47.1659 126.7 45.1055L130.426 63.5641L111.953 67.2924Z" fill="#8A3575" stroke="#371447" stroke-width="3" stroke-miterlimit="10" stroke-linecap="round" stroke-linejoin="round"/>
<path d="M33.382 83.1507C31.3231 72.9499 21.3925 66.36 11.1842 68.4204L14.9098 86.8791L33.382 83.1507Z" fill="#8A3575" stroke="#371447" stroke-width="3" stroke-miterlimit="10" stroke-linecap="round" stroke-linejoin="round"/>
<path d="M46.4122 48.7473C48.4989 59.0862 58.5781 65.7747 68.9245 63.6864C79.271 61.5981 85.9669 51.5239 83.8801 41.185C81.7934 30.8462 71.7143 24.1577 61.3678 26.246C51.0213 28.3343 44.3255 38.4085 46.4122 48.7473Z" fill="#8A3575" stroke="#371447" stroke-width="3" stroke-miterlimit="10" stroke-linecap="round" stroke-linejoin="round"/>
<path d="M65.3114 45.399L64.9645 43.6802C64.414 40.9525 66.1752 38.3026 68.9049 37.7517L69.6528 37.6007C72.3825 37.0498 75.0336 38.8091 75.5842 41.5368L76.8134 47.6274" stroke="#371447" stroke-width="3" stroke-miterlimit="10" stroke-linecap="round" stroke-linejoin="round"/>
<path d="M65.1455 44.5771L65.4698 46.1838C66.0204 48.9115 64.2591 51.5614 61.5294 52.1123L60.7816 52.2633C58.0519 52.8142 55.4007 51.0549 54.8502 48.3272L53.4927 41.6014" stroke="#371447" stroke-width="3" stroke-miterlimit="10" stroke-linecap="round" stroke-linejoin="round"/>
<path d="M79.1313 42.1431L51.1612 47.7884" stroke="#371447" stroke-width="3" stroke-miterlimit="10" stroke-linecap="round" stroke-linejoin="round"/>
</svg>
