<svg width="301" height="211" viewBox="0 0 301 211" fill="none" xmlns="http://www.w3.org/2000/svg">
<path d="M255.992 169.261L235.366 67.0669L43.001 105.893L63.6272 208.086L255.992 169.261Z" fill="#CB3974" stroke="#371447" stroke-width="3" stroke-miterlimit="10" stroke-linecap="round" stroke-linejoin="round"/>
<path d="M204.928 73.443C208.362 90.4594 224.928 101.452 241.957 98.0153L235.742 67.2236L204.928 73.443Z" fill="#8A3575" stroke="#371447" stroke-width="3" stroke-miterlimit="10" stroke-linecap="round" stroke-linejoin="round"/>
<path d="M73.8598 99.8973C77.2943 116.914 66.2893 133.471 49.2603 136.908L43.0455 106.117L73.8598 99.8973Z" fill="#8A3575" stroke="#371447" stroke-width="3" stroke-miterlimit="10" stroke-linecap="round" stroke-linejoin="round"/>
<path d="M225.61 175.917C222.176 158.9 233.181 142.343 250.21 138.906L256.425 169.697L225.61 175.917Z" fill="#8A3575" stroke="#371447" stroke-width="3" stroke-miterlimit="10" stroke-linecap="round" stroke-linejoin="round"/>
<path d="M94.5421 202.371C91.1077 185.354 74.542 174.361 57.5131 177.798L63.7279 208.59L94.5421 202.371Z" fill="#8A3575" stroke="#371447" stroke-width="3" stroke-miterlimit="10" stroke-linecap="round" stroke-linejoin="round"/>
<path d="M116.278 144.981C119.759 162.227 136.573 173.385 153.832 169.901C171.092 166.418 182.261 149.612 178.78 132.366C175.299 115.119 158.486 103.962 141.226 107.445C123.967 110.929 112.797 127.734 116.278 144.981Z" fill="#8A3575" stroke="#371447" stroke-width="3" stroke-miterlimit="10" stroke-linecap="round" stroke-linejoin="round"/>
<path d="M147.805 139.396L147.227 136.528C146.308 131.978 149.246 127.558 153.8 126.639L155.047 126.387C159.601 125.468 164.023 128.403 164.942 132.953L166.992 143.113" stroke="#371447" stroke-width="3" stroke-miterlimit="10" stroke-linecap="round" stroke-linejoin="round"/>
<path d="M147.528 138.025L148.069 140.705C148.988 145.255 146.05 149.676 141.496 150.595L140.249 150.846C135.695 151.765 131.273 148.831 130.354 144.28L128.09 133.061" stroke="#371447" stroke-width="3" stroke-miterlimit="10" stroke-linecap="round" stroke-linejoin="round"/>
<path d="M170.859 133.964L124.201 143.382" stroke="#371447" stroke-width="3" stroke-miterlimit="10" stroke-linecap="round" stroke-linejoin="round"/>
<path d="M63.6787 66L2.08655 78.8775L14.5415 140.587" stroke="#1C988A" stroke-width="3" stroke-miterlimit="10" stroke-linecap="round" stroke-linejoin="round"/>
<path d="M238.407 204.517L299.072 187.809L282.778 127" stroke="#1C988A" stroke-width="3" stroke-miterlimit="10" stroke-linecap="round" stroke-linejoin="round"/>
<path d="M270.526 1V54" stroke="#CB3974" stroke-width="2" stroke-miterlimit="10" stroke-linecap="round" stroke-linejoin="round"/>
<path d="M244 27.5259H297" stroke="#CB3974" stroke-width="2" stroke-miterlimit="10" stroke-linecap="round" stroke-linejoin="round"/>
<path d="M255.324 12.3237L285.676 42.6759" stroke="#CB3974" stroke-width="2" stroke-miterlimit="10" stroke-linecap="round" stroke-linejoin="round"/>
<path d="M255.324 42.6759L285.676 12.3237" stroke="#CB3974" stroke-width="2" stroke-miterlimit="10" stroke-linecap="round" stroke-linejoin="round"/>
</svg>
